<mxfile host="Electron" agent="Mozilla/5.0 (Windows NT 10.0; Win64; x64) AppleWebKit/537.36 (KHTML, like Gecko) draw.io/26.0.9 Chrome/128.0.6613.186 Electron/32.2.5 Safari/537.36" version="26.0.9">
  <diagram id="C5RBs43oDa-KdzZeNtuy" name="Page-1">
    <mxGraphModel dx="1996" dy="1504" grid="1" gridSize="10" guides="1" tooltips="1" connect="1" arrows="1" fold="1" page="1" pageScale="1" pageWidth="827" pageHeight="1169" math="0" shadow="0">
      <root>
        <mxCell id="WIyWlLk6GJQsqaUBKTNV-0" />
        <mxCell id="WIyWlLk6GJQsqaUBKTNV-1" parent="WIyWlLk6GJQsqaUBKTNV-0" />
        <mxCell id="WIyWlLk6GJQsqaUBKTNV-2" value="" style="rounded=0;html=1;jettySize=auto;orthogonalLoop=1;fontSize=11;endArrow=block;endFill=0;endSize=8;strokeWidth=1;shadow=0;labelBackgroundColor=none;edgeStyle=orthogonalEdgeStyle;" parent="WIyWlLk6GJQsqaUBKTNV-1" source="WIyWlLk6GJQsqaUBKTNV-3" target="WIyWlLk6GJQsqaUBKTNV-6" edge="1">
          <mxGeometry relative="1" as="geometry" />
        </mxCell>
        <mxCell id="WIyWlLk6GJQsqaUBKTNV-3" value="inicio" style="rounded=1;whiteSpace=wrap;html=1;fontSize=12;glass=0;strokeWidth=1;shadow=0;" parent="WIyWlLk6GJQsqaUBKTNV-1" vertex="1">
          <mxGeometry x="160" y="80" width="120" height="40" as="geometry" />
        </mxCell>
        <mxCell id="WIyWlLk6GJQsqaUBKTNV-4" value="NO" style="rounded=0;html=1;jettySize=auto;orthogonalLoop=1;fontSize=11;endArrow=block;endFill=0;endSize=8;strokeWidth=1;shadow=0;labelBackgroundColor=none;edgeStyle=orthogonalEdgeStyle;exitX=0.5;exitY=1;exitDx=0;exitDy=0;entryX=0.5;entryY=0;entryDx=0;entryDy=0;" parent="WIyWlLk6GJQsqaUBKTNV-1" source="WIyWlLk6GJQsqaUBKTNV-6" target="EzEX4Wydp2dcZoBqA1ue-79" edge="1">
          <mxGeometry x="-0.2913" y="21" relative="1" as="geometry">
            <mxPoint as="offset" />
            <mxPoint x="310" y="450" as="sourcePoint" />
          </mxGeometry>
        </mxCell>
        <mxCell id="WIyWlLk6GJQsqaUBKTNV-5" value="YES" style="edgeStyle=orthogonalEdgeStyle;rounded=0;html=1;jettySize=auto;orthogonalLoop=1;fontSize=11;endArrow=block;endFill=0;endSize=8;strokeWidth=1;shadow=0;labelBackgroundColor=none;" parent="WIyWlLk6GJQsqaUBKTNV-1" source="WIyWlLk6GJQsqaUBKTNV-6" target="WIyWlLk6GJQsqaUBKTNV-7" edge="1">
          <mxGeometry x="-0.0181" y="30" relative="1" as="geometry">
            <mxPoint as="offset" />
            <Array as="points">
              <mxPoint x="90" y="210" />
            </Array>
          </mxGeometry>
        </mxCell>
        <mxCell id="WIyWlLk6GJQsqaUBKTNV-6" value="dist&amp;lt;0&amp;nbsp;" style="rhombus;whiteSpace=wrap;html=1;shadow=0;fontFamily=Helvetica;fontSize=12;align=center;strokeWidth=1;spacing=6;spacingTop=-4;" parent="WIyWlLk6GJQsqaUBKTNV-1" vertex="1">
          <mxGeometry x="170" y="170" width="100" height="80" as="geometry" />
        </mxCell>
        <mxCell id="WIyWlLk6GJQsqaUBKTNV-7" value="IlligalArgumentExcp" style="rounded=1;whiteSpace=wrap;html=1;fontSize=12;glass=0;strokeWidth=1;shadow=0;" parent="WIyWlLk6GJQsqaUBKTNV-1" vertex="1">
          <mxGeometry x="50" y="1230" width="120" height="40" as="geometry" />
        </mxCell>
        <mxCell id="WIyWlLk6GJQsqaUBKTNV-9" value="" style="edgeStyle=orthogonalEdgeStyle;rounded=0;html=1;jettySize=auto;orthogonalLoop=1;fontSize=11;endArrow=block;endFill=0;endSize=8;strokeWidth=1;shadow=0;labelBackgroundColor=none;exitX=1;exitY=0.5;exitDx=0;exitDy=0;entryX=0.5;entryY=0;entryDx=0;entryDy=0;" parent="WIyWlLk6GJQsqaUBKTNV-1" source="WIyWlLk6GJQsqaUBKTNV-12" target="WIyWlLk6GJQsqaUBKTNV-10" edge="1">
          <mxGeometry y="10" relative="1" as="geometry">
            <mxPoint as="offset" />
            <mxPoint x="280" y="510" as="targetPoint" />
          </mxGeometry>
        </mxCell>
        <mxCell id="WIyWlLk6GJQsqaUBKTNV-10" value="distanciakm&amp;lt;5" style="rhombus;whiteSpace=wrap;html=1;shadow=0;fontFamily=Helvetica;fontSize=12;align=center;strokeWidth=1;spacing=6;spacingTop=-4;" parent="WIyWlLk6GJQsqaUBKTNV-1" vertex="1">
          <mxGeometry x="340" y="440" width="100" height="80" as="geometry" />
        </mxCell>
        <mxCell id="WIyWlLk6GJQsqaUBKTNV-11" value="FIN" style="rounded=1;whiteSpace=wrap;html=1;fontSize=12;glass=0;strokeWidth=1;shadow=0;" parent="WIyWlLk6GJQsqaUBKTNV-1" vertex="1">
          <mxGeometry x="239" y="1530" width="120" height="40" as="geometry" />
        </mxCell>
        <mxCell id="WIyWlLk6GJQsqaUBKTNV-12" value="tarifaBase = 3.5&lt;br&gt;costeTiempo = 0.0" style="rounded=1;whiteSpace=wrap;html=1;fontSize=12;glass=0;strokeWidth=1;shadow=0;" parent="WIyWlLk6GJQsqaUBKTNV-1" vertex="1">
          <mxGeometry x="159" y="400" width="120" height="40" as="geometry" />
        </mxCell>
        <mxCell id="EzEX4Wydp2dcZoBqA1ue-0" value="" style="edgeStyle=orthogonalEdgeStyle;rounded=0;html=1;jettySize=auto;orthogonalLoop=1;fontSize=11;endArrow=block;endFill=0;endSize=8;strokeWidth=1;shadow=0;labelBackgroundColor=none;entryX=0;entryY=0.5;entryDx=0;entryDy=0;exitX=0.5;exitY=1;exitDx=0;exitDy=0;" edge="1" parent="WIyWlLk6GJQsqaUBKTNV-1" source="WIyWlLk6GJQsqaUBKTNV-7" target="WIyWlLk6GJQsqaUBKTNV-11">
          <mxGeometry y="10" relative="1" as="geometry">
            <mxPoint as="offset" />
            <mxPoint x="200" y="720" as="sourcePoint" />
            <mxPoint x="120" y="1240" as="targetPoint" />
          </mxGeometry>
        </mxCell>
        <mxCell id="EzEX4Wydp2dcZoBqA1ue-2" value="" style="edgeStyle=orthogonalEdgeStyle;rounded=0;html=1;jettySize=auto;orthogonalLoop=1;fontSize=11;endArrow=block;endFill=0;endSize=8;strokeWidth=1;shadow=0;labelBackgroundColor=none;exitX=0;exitY=0.5;exitDx=0;exitDy=0;entryX=0.5;entryY=0;entryDx=0;entryDy=0;" edge="1" parent="WIyWlLk6GJQsqaUBKTNV-1" source="WIyWlLk6GJQsqaUBKTNV-10" target="EzEX4Wydp2dcZoBqA1ue-8">
          <mxGeometry y="10" relative="1" as="geometry">
            <mxPoint as="offset" />
            <mxPoint x="290" y="370" as="sourcePoint" />
            <mxPoint x="220" y="490" as="targetPoint" />
          </mxGeometry>
        </mxCell>
        <mxCell id="EzEX4Wydp2dcZoBqA1ue-6" value="NO" style="edgeLabel;html=1;align=center;verticalAlign=middle;resizable=0;points=[];" vertex="1" connectable="0" parent="EzEX4Wydp2dcZoBqA1ue-2">
          <mxGeometry x="-0.5402" relative="1" as="geometry">
            <mxPoint y="-20" as="offset" />
          </mxGeometry>
        </mxCell>
        <mxCell id="EzEX4Wydp2dcZoBqA1ue-3" value="" style="edgeStyle=orthogonalEdgeStyle;rounded=0;html=1;jettySize=auto;orthogonalLoop=1;fontSize=11;endArrow=block;endFill=0;endSize=8;strokeWidth=1;shadow=0;labelBackgroundColor=none;exitX=1;exitY=0.5;exitDx=0;exitDy=0;entryX=0.5;entryY=0;entryDx=0;entryDy=0;fontStyle=1" edge="1" parent="WIyWlLk6GJQsqaUBKTNV-1" source="WIyWlLk6GJQsqaUBKTNV-10" target="EzEX4Wydp2dcZoBqA1ue-4">
          <mxGeometry y="10" relative="1" as="geometry">
            <mxPoint as="offset" />
            <mxPoint x="290" y="370" as="sourcePoint" />
            <mxPoint x="630" y="720" as="targetPoint" />
          </mxGeometry>
        </mxCell>
        <mxCell id="EzEX4Wydp2dcZoBqA1ue-5" value="YES" style="edgeLabel;html=1;align=center;verticalAlign=middle;resizable=0;points=[];" vertex="1" connectable="0" parent="EzEX4Wydp2dcZoBqA1ue-3">
          <mxGeometry x="-0.7195" y="-1" relative="1" as="geometry">
            <mxPoint x="60" y="-21" as="offset" />
          </mxGeometry>
        </mxCell>
        <mxCell id="EzEX4Wydp2dcZoBqA1ue-4" value="costeDistancia = distanciakm * 1.20" style="rounded=1;whiteSpace=wrap;html=1;fontSize=12;glass=0;strokeWidth=1;shadow=0;" vertex="1" parent="WIyWlLk6GJQsqaUBKTNV-1">
          <mxGeometry x="530" y="545" width="120" height="40" as="geometry" />
        </mxCell>
        <mxCell id="EzEX4Wydp2dcZoBqA1ue-8" value="distanciakm&amp;lt;15" style="rhombus;whiteSpace=wrap;html=1;shadow=0;fontFamily=Helvetica;fontSize=12;align=center;strokeWidth=1;spacing=6;spacingTop=-4;" vertex="1" parent="WIyWlLk6GJQsqaUBKTNV-1">
          <mxGeometry x="220" y="620" width="100" height="80" as="geometry" />
        </mxCell>
        <mxCell id="EzEX4Wydp2dcZoBqA1ue-11" value="total = tarifaBase + costeDistancia + costeTiempo" style="rounded=1;whiteSpace=wrap;html=1;fontSize=12;glass=0;strokeWidth=1;shadow=0;" vertex="1" parent="WIyWlLk6GJQsqaUBKTNV-1">
          <mxGeometry x="401" y="1130" width="120" height="60" as="geometry" />
        </mxCell>
        <mxCell id="EzEX4Wydp2dcZoBqA1ue-16" value="" style="edgeStyle=orthogonalEdgeStyle;rounded=0;html=1;jettySize=auto;orthogonalLoop=1;fontSize=11;endArrow=block;endFill=0;endSize=8;strokeWidth=1;shadow=0;labelBackgroundColor=none;exitX=0.5;exitY=1;exitDx=0;exitDy=0;entryX=0.583;entryY=0.013;entryDx=0;entryDy=0;entryPerimeter=0;" edge="1" parent="WIyWlLk6GJQsqaUBKTNV-1" source="EzEX4Wydp2dcZoBqA1ue-8" target="EzEX4Wydp2dcZoBqA1ue-20">
          <mxGeometry y="10" relative="1" as="geometry">
            <mxPoint as="offset" />
            <mxPoint x="350" y="490" as="sourcePoint" />
            <mxPoint x="270" y="750" as="targetPoint" />
            <Array as="points" />
          </mxGeometry>
        </mxCell>
        <mxCell id="EzEX4Wydp2dcZoBqA1ue-17" value="NO" style="edgeLabel;html=1;align=center;verticalAlign=middle;resizable=0;points=[];" vertex="1" connectable="0" parent="EzEX4Wydp2dcZoBqA1ue-16">
          <mxGeometry x="-0.5402" relative="1" as="geometry">
            <mxPoint x="-20" y="9" as="offset" />
          </mxGeometry>
        </mxCell>
        <mxCell id="EzEX4Wydp2dcZoBqA1ue-19" value="costeDistancia = (5*1.20) + ((distanciaKM - 5) * 1.00)" style="rounded=1;whiteSpace=wrap;html=1;fontSize=12;glass=0;strokeWidth=1;shadow=0;" vertex="1" parent="WIyWlLk6GJQsqaUBKTNV-1">
          <mxGeometry x="380" y="700" width="170" height="60" as="geometry" />
        </mxCell>
        <mxCell id="EzEX4Wydp2dcZoBqA1ue-20" value="costeDistancia = (5*1.20) + (10*1.00) +&amp;nbsp;&lt;div&gt;((distanciaKm - 15)* 0.80)&lt;/div&gt;" style="rounded=1;whiteSpace=wrap;html=1;fontSize=12;glass=0;strokeWidth=1;shadow=0;" vertex="1" parent="WIyWlLk6GJQsqaUBKTNV-1">
          <mxGeometry x="220" y="800" width="160" height="60" as="geometry" />
        </mxCell>
        <mxCell id="EzEX4Wydp2dcZoBqA1ue-21" value="" style="edgeStyle=orthogonalEdgeStyle;rounded=0;html=1;jettySize=auto;orthogonalLoop=1;fontSize=11;endArrow=block;endFill=0;endSize=8;strokeWidth=1;shadow=0;labelBackgroundColor=none;exitX=1;exitY=0.5;exitDx=0;exitDy=0;fontStyle=1;entryX=0.499;entryY=-0.032;entryDx=0;entryDy=0;entryPerimeter=0;" edge="1" parent="WIyWlLk6GJQsqaUBKTNV-1">
          <mxGeometry y="10" relative="1" as="geometry">
            <mxPoint as="offset" />
            <mxPoint x="320" y="660" as="sourcePoint" />
            <mxPoint x="465" y="698" as="targetPoint" />
            <Array as="points">
              <mxPoint x="465" y="660" />
            </Array>
          </mxGeometry>
        </mxCell>
        <mxCell id="EzEX4Wydp2dcZoBqA1ue-22" value="YES" style="edgeLabel;html=1;align=center;verticalAlign=middle;resizable=0;points=[];" vertex="1" connectable="0" parent="EzEX4Wydp2dcZoBqA1ue-21">
          <mxGeometry x="-0.7195" y="-1" relative="1" as="geometry">
            <mxPoint x="60" y="-21" as="offset" />
          </mxGeometry>
        </mxCell>
        <mxCell id="EzEX4Wydp2dcZoBqA1ue-27" value="" style="edgeStyle=orthogonalEdgeStyle;rounded=0;html=1;jettySize=auto;orthogonalLoop=1;fontSize=11;endArrow=block;endFill=0;endSize=8;strokeWidth=1;shadow=0;labelBackgroundColor=none;exitX=0.5;exitY=1;exitDx=0;exitDy=0;fontStyle=1;entryX=0.5;entryY=0;entryDx=0;entryDy=0;" edge="1" parent="WIyWlLk6GJQsqaUBKTNV-1" source="EzEX4Wydp2dcZoBqA1ue-11" target="EzEX4Wydp2dcZoBqA1ue-29">
          <mxGeometry y="10" relative="1" as="geometry">
            <mxPoint as="offset" />
            <mxPoint x="330" y="670" as="sourcePoint" />
            <mxPoint x="465" y="1140" as="targetPoint" />
            <Array as="points">
              <mxPoint x="465" y="1180" />
              <mxPoint x="464" y="1180" />
            </Array>
          </mxGeometry>
        </mxCell>
        <mxCell id="EzEX4Wydp2dcZoBqA1ue-29" value="esNocturno" style="rhombus;whiteSpace=wrap;html=1;shadow=0;fontFamily=Helvetica;fontSize=12;align=center;strokeWidth=1;spacing=6;spacingTop=-4;" vertex="1" parent="WIyWlLk6GJQsqaUBKTNV-1">
          <mxGeometry x="414" y="1210" width="100" height="80" as="geometry" />
        </mxCell>
        <mxCell id="EzEX4Wydp2dcZoBqA1ue-30" value="esFestivo" style="rhombus;whiteSpace=wrap;html=1;shadow=0;fontFamily=Helvetica;fontSize=12;align=center;strokeWidth=1;spacing=6;spacingTop=-4;" vertex="1" parent="WIyWlLk6GJQsqaUBKTNV-1">
          <mxGeometry x="414" y="1330" width="100" height="80" as="geometry" />
        </mxCell>
        <mxCell id="EzEX4Wydp2dcZoBqA1ue-31" value="" style="edgeStyle=orthogonalEdgeStyle;rounded=0;html=1;jettySize=auto;orthogonalLoop=1;fontSize=11;endArrow=block;endFill=0;endSize=8;strokeWidth=1;shadow=0;labelBackgroundColor=none;exitX=0.5;exitY=1;exitDx=0;exitDy=0;entryX=0.5;entryY=0;entryDx=0;entryDy=0;" edge="1" parent="WIyWlLk6GJQsqaUBKTNV-1" source="EzEX4Wydp2dcZoBqA1ue-29" target="EzEX4Wydp2dcZoBqA1ue-30">
          <mxGeometry y="10" relative="1" as="geometry">
            <mxPoint as="offset" />
            <mxPoint x="279" y="890" as="sourcePoint" />
            <mxPoint x="282" y="951" as="targetPoint" />
            <Array as="points" />
          </mxGeometry>
        </mxCell>
        <mxCell id="EzEX4Wydp2dcZoBqA1ue-32" value="NO" style="edgeLabel;html=1;align=center;verticalAlign=middle;resizable=0;points=[];" vertex="1" connectable="0" parent="EzEX4Wydp2dcZoBqA1ue-31">
          <mxGeometry x="-0.5402" relative="1" as="geometry">
            <mxPoint x="-20" y="9" as="offset" />
          </mxGeometry>
        </mxCell>
        <mxCell id="EzEX4Wydp2dcZoBqA1ue-35" value="total&amp;nbsp; *= 1.20" style="rounded=1;whiteSpace=wrap;html=1;fontSize=12;glass=0;strokeWidth=1;shadow=0;" vertex="1" parent="WIyWlLk6GJQsqaUBKTNV-1">
          <mxGeometry x="279" y="1280" width="80" height="30" as="geometry" />
        </mxCell>
        <mxCell id="EzEX4Wydp2dcZoBqA1ue-36" value="" style="edgeStyle=orthogonalEdgeStyle;rounded=0;html=1;jettySize=auto;orthogonalLoop=1;fontSize=11;endArrow=block;endFill=0;endSize=8;strokeWidth=1;shadow=0;labelBackgroundColor=none;exitX=0;exitY=0.5;exitDx=0;exitDy=0;entryX=1;entryY=0.5;entryDx=0;entryDy=0;" edge="1" parent="WIyWlLk6GJQsqaUBKTNV-1" source="EzEX4Wydp2dcZoBqA1ue-29" target="EzEX4Wydp2dcZoBqA1ue-35">
          <mxGeometry y="10" relative="1" as="geometry">
            <mxPoint as="offset" />
            <mxPoint x="474" y="1300" as="sourcePoint" />
            <mxPoint x="474" y="1340" as="targetPoint" />
            <Array as="points" />
          </mxGeometry>
        </mxCell>
        <mxCell id="EzEX4Wydp2dcZoBqA1ue-37" value="YES" style="edgeLabel;html=1;align=center;verticalAlign=middle;resizable=0;points=[];" vertex="1" connectable="0" parent="EzEX4Wydp2dcZoBqA1ue-36">
          <mxGeometry x="-0.5402" relative="1" as="geometry">
            <mxPoint x="-13" y="-10" as="offset" />
          </mxGeometry>
        </mxCell>
        <mxCell id="EzEX4Wydp2dcZoBqA1ue-38" value="" style="edgeStyle=orthogonalEdgeStyle;rounded=0;html=1;jettySize=auto;orthogonalLoop=1;fontSize=11;endArrow=block;endFill=0;endSize=8;strokeWidth=1;shadow=0;labelBackgroundColor=none;exitX=0.5;exitY=1;exitDx=0;exitDy=0;entryX=0;entryY=0.5;entryDx=0;entryDy=0;" edge="1" parent="WIyWlLk6GJQsqaUBKTNV-1" source="EzEX4Wydp2dcZoBqA1ue-35" target="EzEX4Wydp2dcZoBqA1ue-30">
          <mxGeometry y="10" relative="1" as="geometry">
            <mxPoint as="offset" />
            <mxPoint x="424" y="1260" as="sourcePoint" />
            <mxPoint x="369" y="1260" as="targetPoint" />
            <Array as="points" />
          </mxGeometry>
        </mxCell>
        <mxCell id="EzEX4Wydp2dcZoBqA1ue-40" value="total&amp;nbsp; *= 0.5" style="rounded=1;whiteSpace=wrap;html=1;fontSize=12;glass=0;strokeWidth=1;shadow=0;" vertex="1" parent="WIyWlLk6GJQsqaUBKTNV-1">
          <mxGeometry x="289" y="1430" width="80" height="30" as="geometry" />
        </mxCell>
        <mxCell id="EzEX4Wydp2dcZoBqA1ue-41" value="" style="edgeStyle=orthogonalEdgeStyle;rounded=0;html=1;jettySize=auto;orthogonalLoop=1;fontSize=11;endArrow=block;endFill=0;endSize=8;strokeWidth=1;shadow=0;labelBackgroundColor=none;exitX=0.5;exitY=1;exitDx=0;exitDy=0;entryX=1;entryY=0.5;entryDx=0;entryDy=0;" edge="1" parent="WIyWlLk6GJQsqaUBKTNV-1" source="EzEX4Wydp2dcZoBqA1ue-30" target="EzEX4Wydp2dcZoBqA1ue-40">
          <mxGeometry y="10" relative="1" as="geometry">
            <mxPoint as="offset" />
            <mxPoint x="329" y="1320" as="sourcePoint" />
            <mxPoint x="424" y="1380" as="targetPoint" />
            <Array as="points" />
          </mxGeometry>
        </mxCell>
        <mxCell id="EzEX4Wydp2dcZoBqA1ue-42" value="" style="edgeStyle=orthogonalEdgeStyle;rounded=0;html=1;jettySize=auto;orthogonalLoop=1;fontSize=11;endArrow=block;endFill=0;endSize=8;strokeWidth=1;shadow=0;labelBackgroundColor=none;exitX=1;exitY=0.5;exitDx=0;exitDy=0;entryX=1;entryY=0.5;entryDx=0;entryDy=0;" edge="1" parent="WIyWlLk6GJQsqaUBKTNV-1" source="EzEX4Wydp2dcZoBqA1ue-30" target="WIyWlLk6GJQsqaUBKTNV-11">
          <mxGeometry y="10" relative="1" as="geometry">
            <mxPoint as="offset" />
            <mxPoint x="339" y="1330" as="sourcePoint" />
            <mxPoint x="434" y="1390" as="targetPoint" />
            <Array as="points" />
          </mxGeometry>
        </mxCell>
        <mxCell id="EzEX4Wydp2dcZoBqA1ue-43" value="NO" style="text;html=1;align=center;verticalAlign=middle;resizable=0;points=[];autosize=1;strokeColor=none;fillColor=none;" vertex="1" parent="WIyWlLk6GJQsqaUBKTNV-1">
          <mxGeometry x="549" y="1428" width="40" height="30" as="geometry" />
        </mxCell>
        <mxCell id="EzEX4Wydp2dcZoBqA1ue-44" value="YES" style="text;html=1;align=center;verticalAlign=middle;resizable=0;points=[];autosize=1;strokeColor=none;fillColor=none;" vertex="1" parent="WIyWlLk6GJQsqaUBKTNV-1">
          <mxGeometry x="399" y="1450" width="50" height="30" as="geometry" />
        </mxCell>
        <mxCell id="EzEX4Wydp2dcZoBqA1ue-46" value="costeTiempo = tiempoMin *0.50" style="rounded=1;whiteSpace=wrap;html=1;fontSize=12;glass=0;strokeWidth=1;shadow=0;" vertex="1" parent="WIyWlLk6GJQsqaUBKTNV-1">
          <mxGeometry x="170" y="1030" width="120" height="60" as="geometry" />
        </mxCell>
        <mxCell id="EzEX4Wydp2dcZoBqA1ue-47" value="distanciaKm &amp;gt;0&lt;div&gt;&lt;br&gt;&lt;/div&gt;" style="rhombus;whiteSpace=wrap;html=1;shadow=0;fontFamily=Helvetica;fontSize=12;align=center;strokeWidth=1;spacing=6;spacingTop=-4;" vertex="1" parent="WIyWlLk6GJQsqaUBKTNV-1">
          <mxGeometry x="350" y="850" width="228" height="110" as="geometry" />
        </mxCell>
        <mxCell id="EzEX4Wydp2dcZoBqA1ue-48" value="" style="edgeStyle=orthogonalEdgeStyle;rounded=0;html=1;jettySize=auto;orthogonalLoop=1;fontSize=11;endArrow=block;endFill=0;endSize=8;strokeWidth=1;shadow=0;labelBackgroundColor=none;exitX=1;exitY=0.5;exitDx=0;exitDy=0;entryX=0.5;entryY=0;entryDx=0;entryDy=0;" edge="1" parent="WIyWlLk6GJQsqaUBKTNV-1" source="EzEX4Wydp2dcZoBqA1ue-20" target="EzEX4Wydp2dcZoBqA1ue-47">
          <mxGeometry y="10" relative="1" as="geometry">
            <mxPoint as="offset" />
            <mxPoint x="280" y="710" as="sourcePoint" />
            <mxPoint x="323" y="811" as="targetPoint" />
            <Array as="points" />
          </mxGeometry>
        </mxCell>
        <mxCell id="EzEX4Wydp2dcZoBqA1ue-50" value="" style="edgeStyle=orthogonalEdgeStyle;rounded=0;html=1;jettySize=auto;orthogonalLoop=1;fontSize=11;endArrow=none;endFill=0;endSize=8;strokeWidth=1;shadow=0;labelBackgroundColor=none;exitX=0.5;exitY=1;exitDx=0;exitDy=0;startFill=0;" edge="1" parent="WIyWlLk6GJQsqaUBKTNV-1" source="EzEX4Wydp2dcZoBqA1ue-19">
          <mxGeometry y="10" relative="1" as="geometry">
            <mxPoint as="offset" />
            <mxPoint x="390" y="840" as="sourcePoint" />
            <mxPoint x="465" y="840" as="targetPoint" />
            <Array as="points" />
          </mxGeometry>
        </mxCell>
        <mxCell id="EzEX4Wydp2dcZoBqA1ue-51" value="" style="edgeStyle=orthogonalEdgeStyle;rounded=0;html=1;jettySize=auto;orthogonalLoop=1;fontSize=11;endArrow=none;endFill=0;endSize=8;strokeWidth=1;shadow=0;labelBackgroundColor=none;exitX=0.75;exitY=1;exitDx=0;exitDy=0;startFill=0;" edge="1" parent="WIyWlLk6GJQsqaUBKTNV-1" source="EzEX4Wydp2dcZoBqA1ue-4">
          <mxGeometry y="10" relative="1" as="geometry">
            <mxPoint as="offset" />
            <mxPoint x="475" y="770" as="sourcePoint" />
            <mxPoint x="460" y="830" as="targetPoint" />
            <Array as="points">
              <mxPoint x="620" y="830" />
            </Array>
          </mxGeometry>
        </mxCell>
        <mxCell id="EzEX4Wydp2dcZoBqA1ue-56" value="" style="edgeStyle=orthogonalEdgeStyle;rounded=0;html=1;jettySize=auto;orthogonalLoop=1;fontSize=11;endArrow=block;endFill=0;endSize=8;strokeWidth=1;shadow=0;labelBackgroundColor=none;exitX=0.5;exitY=1;exitDx=0;exitDy=0;entryX=0;entryY=0.5;entryDx=0;entryDy=0;" edge="1" parent="WIyWlLk6GJQsqaUBKTNV-1" source="EzEX4Wydp2dcZoBqA1ue-46" target="EzEX4Wydp2dcZoBqA1ue-11">
          <mxGeometry y="10" relative="1" as="geometry">
            <mxPoint as="offset" />
            <mxPoint x="357" y="985" as="sourcePoint" />
            <mxPoint x="335" y="1060" as="targetPoint" />
            <Array as="points" />
          </mxGeometry>
        </mxCell>
        <mxCell id="EzEX4Wydp2dcZoBqA1ue-58" value="" style="edgeStyle=orthogonalEdgeStyle;rounded=0;html=1;jettySize=auto;orthogonalLoop=1;fontSize=11;endArrow=block;endFill=0;endSize=8;strokeWidth=1;shadow=0;labelBackgroundColor=none;exitX=0.5;exitY=1;exitDx=0;exitDy=0;entryX=0.75;entryY=0;entryDx=0;entryDy=0;" edge="1" parent="WIyWlLk6GJQsqaUBKTNV-1" source="EzEX4Wydp2dcZoBqA1ue-40" target="WIyWlLk6GJQsqaUBKTNV-11">
          <mxGeometry y="10" relative="1" as="geometry">
            <mxPoint as="offset" />
            <mxPoint x="329" y="1320" as="sourcePoint" />
            <mxPoint x="424" y="1380" as="targetPoint" />
            <Array as="points" />
          </mxGeometry>
        </mxCell>
        <mxCell id="EzEX4Wydp2dcZoBqA1ue-59" value="&lt;b&gt;&lt;u&gt;COMPLEJIDAD CICLOMATICA:&lt;/u&gt;&lt;br&gt;&lt;/b&gt;&lt;font style=&quot;color: rgb(51, 153, 255);&quot;&gt;1. V(G)= a-n+2 = 26-19+2 =8&lt;/font&gt;&lt;div&gt;&lt;font style=&quot;color: rgb(51, 153, 255);&quot;&gt;2. V(G)= c+1 = 8+1 =9&lt;br&gt;3. V(G)= r =9&lt;/font&gt;&lt;/div&gt;" style="text;html=1;align=left;verticalAlign=middle;resizable=0;points=[];autosize=1;fillStyle=solid;strokeColor=default;dashed=1;dashPattern=8 8;" vertex="1" parent="WIyWlLk6GJQsqaUBKTNV-1">
          <mxGeometry x="414" y="30" width="200" height="70" as="geometry" />
        </mxCell>
        <mxCell id="EzEX4Wydp2dcZoBqA1ue-60" value="&lt;b&gt;&lt;u&gt;CAMINOS DE PRUEBAS:&lt;/u&gt;&lt;/b&gt;&lt;div&gt;&lt;font style=&quot;color: rgb(255, 179, 102);&quot;&gt;1. A-B-C&amp;nbsp;&amp;nbsp;&lt;/font&gt;&lt;/div&gt;&lt;div&gt;&lt;font style=&quot;background-color: transparent; color: rgb(255, 179, 102);&quot;&gt;2.&amp;nbsp;&lt;/font&gt;&lt;span style=&quot;background-color: transparent; color: rgb(255, 179, 102);&quot;&gt;A-B-E-F-H-J-K-L-M-N-O-P-Q-D&lt;/span&gt;&lt;br&gt;&lt;/div&gt;&lt;div&gt;&lt;font style=&quot;color: rgb(255, 179, 102);&quot;&gt;3.&amp;nbsp;&lt;/font&gt;&lt;span style=&quot;color: rgb(255, 179, 102); background-color: transparent;&quot;&gt;A-B-E-F-G-K-M-N-P&lt;/span&gt;&lt;/div&gt;&lt;div&gt;&lt;font style=&quot;color: rgb(255, 179, 102);&quot;&gt;4.&amp;nbsp;&lt;/font&gt;&lt;span style=&quot;color: rgb(255, 179, 102); background-color: transparent;&quot;&gt;A-B-E-F-H-I-K-L-M-N-O-P-Q-D&lt;/span&gt;&lt;/div&gt;&lt;div&gt;&lt;span style=&quot;color: rgb(255, 179, 102);&quot;&gt;5. A-B-R-C&lt;/span&gt;&lt;br&gt;&lt;/div&gt;&lt;div&gt;&lt;font style=&quot;color: rgb(255, 179, 102);&quot;&gt;6.&amp;nbsp;&lt;/font&gt;&lt;span style=&quot;color: rgb(255, 179, 102); background-color: transparent;&quot;&gt;A-B-E-F&lt;/span&gt;&lt;/div&gt;&lt;div&gt;&lt;font style=&quot;color: rgb(255, 179, 102);&quot;&gt;7.&amp;nbsp;&lt;/font&gt;&lt;span style=&quot;color: rgb(255, 179, 102); background-color: transparent;&quot;&gt;A-B-E-F&lt;/span&gt;&lt;/div&gt;&lt;div&gt;&lt;font style=&quot;color: rgb(255, 179, 102);&quot;&gt;8.&amp;nbsp;&lt;/font&gt;&lt;span style=&quot;color: rgb(255, 179, 102); background-color: transparent;&quot;&gt;A-B-E-F&lt;/span&gt;&lt;/div&gt;" style="text;html=1;align=left;verticalAlign=middle;resizable=0;points=[];autosize=1;strokeColor=default;fillColor=none;dashed=1;dashPattern=8 8;" vertex="1" parent="WIyWlLk6GJQsqaUBKTNV-1">
          <mxGeometry x="414" y="100" width="200" height="140" as="geometry" />
        </mxCell>
        <mxCell id="EzEX4Wydp2dcZoBqA1ue-61" value="&lt;b&gt;&lt;u&gt;CASOS DE PRUEBA&lt;/u&gt;&lt;/b&gt;" style="text;html=1;align=center;verticalAlign=middle;resizable=0;points=[];autosize=1;strokeColor=default;fillColor=none;dashed=1;dashPattern=8 8;" vertex="1" parent="WIyWlLk6GJQsqaUBKTNV-1">
          <mxGeometry x="414" y="240" width="140" height="30" as="geometry" />
        </mxCell>
        <mxCell id="EzEX4Wydp2dcZoBqA1ue-62" value="A" style="text;html=1;align=center;verticalAlign=middle;resizable=0;points=[];autosize=1;strokeColor=none;fillColor=none;" vertex="1" parent="WIyWlLk6GJQsqaUBKTNV-1">
          <mxGeometry x="170" y="38" width="30" height="30" as="geometry" />
        </mxCell>
        <mxCell id="EzEX4Wydp2dcZoBqA1ue-63" value="B" style="text;html=1;align=center;verticalAlign=middle;resizable=0;points=[];autosize=1;strokeColor=none;fillColor=none;" vertex="1" parent="WIyWlLk6GJQsqaUBKTNV-1">
          <mxGeometry x="259" y="160" width="30" height="30" as="geometry" />
        </mxCell>
        <mxCell id="EzEX4Wydp2dcZoBqA1ue-64" value="E" style="text;html=1;align=center;verticalAlign=middle;resizable=0;points=[];autosize=1;strokeColor=none;fillColor=none;" vertex="1" parent="WIyWlLk6GJQsqaUBKTNV-1">
          <mxGeometry x="284" y="370" width="30" height="30" as="geometry" />
        </mxCell>
        <mxCell id="EzEX4Wydp2dcZoBqA1ue-65" value="F" style="text;html=1;align=center;verticalAlign=middle;resizable=0;points=[];autosize=1;strokeColor=none;fillColor=none;" vertex="1" parent="WIyWlLk6GJQsqaUBKTNV-1">
          <mxGeometry x="419" y="430" width="30" height="30" as="geometry" />
        </mxCell>
        <mxCell id="EzEX4Wydp2dcZoBqA1ue-66" value="G" style="text;html=1;align=center;verticalAlign=middle;resizable=0;points=[];autosize=1;strokeColor=none;fillColor=none;" vertex="1" parent="WIyWlLk6GJQsqaUBKTNV-1">
          <mxGeometry x="614" y="510" width="30" height="30" as="geometry" />
        </mxCell>
        <mxCell id="EzEX4Wydp2dcZoBqA1ue-67" value="H" style="text;html=1;align=center;verticalAlign=middle;resizable=0;points=[];autosize=1;strokeColor=none;fillColor=none;" vertex="1" parent="WIyWlLk6GJQsqaUBKTNV-1">
          <mxGeometry x="290" y="600" width="30" height="30" as="geometry" />
        </mxCell>
        <mxCell id="EzEX4Wydp2dcZoBqA1ue-68" value="I" style="text;html=1;align=center;verticalAlign=middle;resizable=0;points=[];autosize=1;strokeColor=none;fillColor=none;" vertex="1" parent="WIyWlLk6GJQsqaUBKTNV-1">
          <mxGeometry x="484" y="660" width="30" height="30" as="geometry" />
        </mxCell>
        <mxCell id="EzEX4Wydp2dcZoBqA1ue-69" value="J" style="text;html=1;align=center;verticalAlign=middle;resizable=0;points=[];autosize=1;strokeColor=none;fillColor=none;" vertex="1" parent="WIyWlLk6GJQsqaUBKTNV-1">
          <mxGeometry x="329" y="760" width="30" height="30" as="geometry" />
        </mxCell>
        <mxCell id="EzEX4Wydp2dcZoBqA1ue-70" value="K" style="text;html=1;align=center;verticalAlign=middle;resizable=0;points=[];autosize=1;strokeColor=none;fillColor=none;" vertex="1" parent="WIyWlLk6GJQsqaUBKTNV-1">
          <mxGeometry x="525" y="860" width="30" height="30" as="geometry" />
        </mxCell>
        <mxCell id="EzEX4Wydp2dcZoBqA1ue-73" value="N" style="text;html=1;align=center;verticalAlign=middle;resizable=0;points=[];autosize=1;strokeColor=none;fillColor=none;" vertex="1" parent="WIyWlLk6GJQsqaUBKTNV-1">
          <mxGeometry x="500" y="1200" width="30" height="30" as="geometry" />
        </mxCell>
        <mxCell id="EzEX4Wydp2dcZoBqA1ue-74" value="O" style="text;html=1;align=center;verticalAlign=middle;resizable=0;points=[];autosize=1;strokeColor=none;fillColor=none;" vertex="1" parent="WIyWlLk6GJQsqaUBKTNV-1">
          <mxGeometry x="310" y="1240" width="30" height="30" as="geometry" />
        </mxCell>
        <mxCell id="EzEX4Wydp2dcZoBqA1ue-75" value="P" style="text;html=1;align=center;verticalAlign=middle;resizable=0;points=[];autosize=1;strokeColor=none;fillColor=none;" vertex="1" parent="WIyWlLk6GJQsqaUBKTNV-1">
          <mxGeometry x="499" y="1310" width="30" height="30" as="geometry" />
        </mxCell>
        <mxCell id="EzEX4Wydp2dcZoBqA1ue-76" value="C" style="text;html=1;align=center;verticalAlign=middle;resizable=0;points=[];autosize=1;strokeColor=none;fillColor=none;" vertex="1" parent="WIyWlLk6GJQsqaUBKTNV-1">
          <mxGeometry x="120" y="1180" width="30" height="30" as="geometry" />
        </mxCell>
        <mxCell id="EzEX4Wydp2dcZoBqA1ue-77" value="Q" style="text;html=1;align=center;verticalAlign=middle;resizable=0;points=[];autosize=1;strokeColor=none;fillColor=none;" vertex="1" parent="WIyWlLk6GJQsqaUBKTNV-1">
          <mxGeometry x="299" y="1390" width="30" height="30" as="geometry" />
        </mxCell>
        <mxCell id="EzEX4Wydp2dcZoBqA1ue-78" value="D" style="text;html=1;align=center;verticalAlign=middle;resizable=0;points=[];autosize=1;strokeColor=none;fillColor=none;" vertex="1" parent="WIyWlLk6GJQsqaUBKTNV-1">
          <mxGeometry x="260" y="1490" width="30" height="30" as="geometry" />
        </mxCell>
        <mxCell id="EzEX4Wydp2dcZoBqA1ue-79" value="&lt;br&gt;tiem &amp;lt; 0" style="rhombus;whiteSpace=wrap;html=1;shadow=0;fontFamily=Helvetica;fontSize=12;align=center;strokeWidth=1;spacing=6;spacingTop=-4;" vertex="1" parent="WIyWlLk6GJQsqaUBKTNV-1">
          <mxGeometry x="169" y="280" width="100" height="80" as="geometry" />
        </mxCell>
        <mxCell id="EzEX4Wydp2dcZoBqA1ue-80" value="NO" style="rounded=0;html=1;jettySize=auto;orthogonalLoop=1;fontSize=11;endArrow=block;endFill=0;endSize=8;strokeWidth=1;shadow=0;labelBackgroundColor=none;edgeStyle=orthogonalEdgeStyle;entryX=0.5;entryY=0;entryDx=0;entryDy=0;exitX=0.5;exitY=1;exitDx=0;exitDy=0;" edge="1" parent="WIyWlLk6GJQsqaUBKTNV-1" source="EzEX4Wydp2dcZoBqA1ue-79" target="WIyWlLk6GJQsqaUBKTNV-12">
          <mxGeometry x="-0.2913" y="21" relative="1" as="geometry">
            <mxPoint as="offset" />
            <mxPoint x="200" y="370" as="sourcePoint" />
            <mxPoint x="229" y="290" as="targetPoint" />
          </mxGeometry>
        </mxCell>
        <mxCell id="EzEX4Wydp2dcZoBqA1ue-81" value="YES" style="rounded=0;html=1;jettySize=auto;orthogonalLoop=1;fontSize=11;endArrow=none;endFill=0;endSize=8;strokeWidth=1;shadow=0;labelBackgroundColor=none;edgeStyle=orthogonalEdgeStyle;exitX=0;exitY=0.5;exitDx=0;exitDy=0;startFill=0;" edge="1" parent="WIyWlLk6GJQsqaUBKTNV-1" source="EzEX4Wydp2dcZoBqA1ue-79">
          <mxGeometry x="-0.2913" y="21" relative="1" as="geometry">
            <mxPoint as="offset" />
            <mxPoint x="230" y="260" as="sourcePoint" />
            <mxPoint x="90" y="340" as="targetPoint" />
            <Array as="points">
              <mxPoint x="90" y="320" />
            </Array>
          </mxGeometry>
        </mxCell>
        <mxCell id="EzEX4Wydp2dcZoBqA1ue-82" value="R" style="text;html=1;align=center;verticalAlign=middle;resizable=0;points=[];autosize=1;strokeColor=none;fillColor=none;" vertex="1" parent="WIyWlLk6GJQsqaUBKTNV-1">
          <mxGeometry x="265" y="278" width="30" height="30" as="geometry" />
        </mxCell>
        <mxCell id="EzEX4Wydp2dcZoBqA1ue-83" value="d(distanciaKm / ((tiempoMin / 60.0)) &amp;lt;10" style="rhombus;whiteSpace=wrap;html=1;shadow=0;fontFamily=Helvetica;fontSize=12;align=center;strokeWidth=1;spacing=6;spacingTop=-4;" vertex="1" parent="WIyWlLk6GJQsqaUBKTNV-1">
          <mxGeometry x="350" y="990" width="228" height="110" as="geometry" />
        </mxCell>
        <mxCell id="EzEX4Wydp2dcZoBqA1ue-84" value="" style="edgeStyle=orthogonalEdgeStyle;rounded=0;html=1;jettySize=auto;orthogonalLoop=1;fontSize=11;endArrow=none;endFill=0;endSize=8;strokeWidth=1;shadow=0;labelBackgroundColor=none;exitX=0.5;exitY=1;exitDx=0;exitDy=0;startFill=0;entryX=0.5;entryY=0;entryDx=0;entryDy=0;" edge="1" parent="WIyWlLk6GJQsqaUBKTNV-1" source="EzEX4Wydp2dcZoBqA1ue-47" target="EzEX4Wydp2dcZoBqA1ue-83">
          <mxGeometry y="10" relative="1" as="geometry">
            <mxPoint as="offset" />
            <mxPoint x="475" y="770" as="sourcePoint" />
            <mxPoint x="475" y="850" as="targetPoint" />
            <Array as="points" />
          </mxGeometry>
        </mxCell>
        <mxCell id="EzEX4Wydp2dcZoBqA1ue-85" value="NO" style="text;html=1;align=center;verticalAlign=middle;resizable=0;points=[];autosize=1;strokeColor=none;fillColor=none;" vertex="1" parent="WIyWlLk6GJQsqaUBKTNV-1">
          <mxGeometry x="480" y="960" width="40" height="30" as="geometry" />
        </mxCell>
        <mxCell id="EzEX4Wydp2dcZoBqA1ue-86" value="" style="edgeStyle=orthogonalEdgeStyle;rounded=0;html=1;jettySize=auto;orthogonalLoop=1;fontSize=11;endArrow=none;endFill=0;endSize=8;strokeWidth=1;shadow=0;labelBackgroundColor=none;exitX=0.5;exitY=1;exitDx=0;exitDy=0;startFill=0;entryX=0.5;entryY=0;entryDx=0;entryDy=0;" edge="1" parent="WIyWlLk6GJQsqaUBKTNV-1" source="EzEX4Wydp2dcZoBqA1ue-83" target="EzEX4Wydp2dcZoBqA1ue-11">
          <mxGeometry y="10" relative="1" as="geometry">
            <mxPoint as="offset" />
            <mxPoint x="474" y="970" as="sourcePoint" />
            <mxPoint x="474" y="1000" as="targetPoint" />
            <Array as="points" />
          </mxGeometry>
        </mxCell>
        <mxCell id="EzEX4Wydp2dcZoBqA1ue-87" value="NO" style="text;html=1;align=center;verticalAlign=middle;resizable=0;points=[];autosize=1;strokeColor=none;fillColor=none;" vertex="1" parent="WIyWlLk6GJQsqaUBKTNV-1">
          <mxGeometry x="481" y="1090" width="40" height="30" as="geometry" />
        </mxCell>
        <mxCell id="EzEX4Wydp2dcZoBqA1ue-88" value="" style="edgeStyle=orthogonalEdgeStyle;rounded=0;html=1;jettySize=auto;orthogonalLoop=1;fontSize=11;endArrow=block;endFill=0;endSize=8;strokeWidth=1;shadow=0;labelBackgroundColor=none;exitX=0;exitY=0.5;exitDx=0;exitDy=0;entryX=1;entryY=0.5;entryDx=0;entryDy=0;" edge="1" parent="WIyWlLk6GJQsqaUBKTNV-1" source="EzEX4Wydp2dcZoBqA1ue-83" target="EzEX4Wydp2dcZoBqA1ue-46">
          <mxGeometry y="10" relative="1" as="geometry">
            <mxPoint as="offset" />
            <mxPoint x="424" y="1260" as="sourcePoint" />
            <mxPoint x="369" y="1305" as="targetPoint" />
            <Array as="points" />
          </mxGeometry>
        </mxCell>
        <mxCell id="EzEX4Wydp2dcZoBqA1ue-89" value="YES" style="edgeLabel;html=1;align=center;verticalAlign=middle;resizable=0;points=[];" vertex="1" connectable="0" parent="EzEX4Wydp2dcZoBqA1ue-88">
          <mxGeometry x="-0.5402" relative="1" as="geometry">
            <mxPoint x="-13" y="-10" as="offset" />
          </mxGeometry>
        </mxCell>
        <mxCell id="EzEX4Wydp2dcZoBqA1ue-90" value="" style="edgeStyle=orthogonalEdgeStyle;rounded=0;html=1;jettySize=auto;orthogonalLoop=1;fontSize=11;endArrow=block;endFill=0;endSize=8;strokeWidth=1;shadow=0;labelBackgroundColor=none;exitX=0;exitY=0.5;exitDx=0;exitDy=0;entryX=0.5;entryY=0;entryDx=0;entryDy=0;" edge="1" parent="WIyWlLk6GJQsqaUBKTNV-1" source="EzEX4Wydp2dcZoBqA1ue-47" target="EzEX4Wydp2dcZoBqA1ue-46">
          <mxGeometry y="10" relative="1" as="geometry">
            <mxPoint as="offset" />
            <mxPoint x="360" y="1055" as="sourcePoint" />
            <mxPoint x="300" y="1070" as="targetPoint" />
            <Array as="points" />
          </mxGeometry>
        </mxCell>
        <mxCell id="EzEX4Wydp2dcZoBqA1ue-91" value="YES" style="edgeLabel;html=1;align=center;verticalAlign=middle;resizable=0;points=[];" vertex="1" connectable="0" parent="EzEX4Wydp2dcZoBqA1ue-90">
          <mxGeometry x="-0.5402" relative="1" as="geometry">
            <mxPoint x="-13" y="-10" as="offset" />
          </mxGeometry>
        </mxCell>
      </root>
    </mxGraphModel>
  </diagram>
</mxfile>
